<svg width="31" height="31" viewBox="0 0 31 31" fill="none" xmlns="http://www.w3.org/2000/svg">
<path fill-rule="evenodd" clip-rule="evenodd" d="M11.1406 21.3125V24.7202C11.1406 25.0931 11.5443 25.3261 11.8672 25.1397L18.4961 21.3125H23.25C24.3201 21.3125 25.1875 20.4451 25.1875 19.375V7.75C25.1875 6.67995 24.3201 5.8125 23.25 5.8125H7.75C6.67995 5.8125 5.8125 6.67995 5.8125 7.75V19.375C5.8125 20.4451 6.67995 21.3125 7.75 21.3125H11.1406ZM7.75 22.2813C6.14492 22.2813 4.84375 20.9801 4.84375 19.375V7.75C4.84375 6.14492 6.14492 4.84375 7.75 4.84375H23.25C24.8551 4.84375 26.1562 6.14492 26.1562 7.75V19.375C26.1562 20.9801 24.8551 22.2813 23.25 22.2813H18.7556L12.3516 25.9786C11.3828 26.538 10.1719 25.8388 10.1719 24.7202V22.2813H7.75Z" fill="#CB4D37"/>
</svg>
