<svg width="42" height="42" viewBox="0 0 42 42" fill="none" xmlns="http://www.w3.org/2000/svg">
<path fill-rule="evenodd" clip-rule="evenodd" d="M29.1252 36.5034C26.6971 37.7785 23.9328 38.5 21 38.5C18.0672 38.5 15.3029 37.7785 12.8748 36.5034C12.4718 35.4977 12.25 34.3997 12.25 33.25C12.25 28.4175 16.1675 24.5 21 24.5C25.8325 24.5 29.75 28.4175 29.75 33.25C29.75 34.3997 29.5282 35.4977 29.1252 36.5034ZM33.2475 33.5C33.2492 33.4168 33.25 33.3335 33.25 33.25C33.25 28.538 30.5896 24.4475 26.689 22.3983C28.5627 20.7935 29.75 18.4104 29.75 15.75C29.75 10.9175 25.8325 6.99999 21 6.99999C16.1675 6.99999 12.25 10.9175 12.25 15.75C12.25 18.4104 13.4373 20.7935 15.311 22.3983C11.4104 24.4475 8.75 28.538 8.75 33.25C8.75 33.3335 8.75084 33.4168 8.7525 33.5C5.51115 30.3237 3.5 25.8967 3.5 21C3.5 11.335 11.335 3.5 21 3.5C30.665 3.5 38.5 11.335 38.5 21C38.5 25.8967 36.4888 30.3237 33.2475 33.5ZM31.0098 39.4654C37.5561 35.9093 42 28.9736 42 21C42 9.40202 32.598 0 21 0C9.40202 0 0 9.40202 0 21C0 28.641 4.08095 35.3289 10.1822 39.003C13.3236 40.8947 17.0007 41.9874 20.9321 41.9999M21.0143 42C24.6334 41.9976 28.0382 41.0797 31.0098 39.4654L21.0143 42ZM21 21C23.8995 21 26.25 18.6495 26.25 15.75C26.25 12.8505 23.8995 10.5 21 10.5C18.1005 10.5 15.75 12.8505 15.75 15.75C15.75 18.6495 18.1005 21 21 21Z" fill="white"/>
</svg>
