<svg width="36" height="40" viewBox="0 0 36 40" fill="none" xmlns="http://www.w3.org/2000/svg">
<path id="Union" fill-rule="evenodd" clip-rule="evenodd" d="M22.3902 2.25712C21.4518 0.897577 19.8359 0 17.9999 0C16.1639 0 14.548 0.897598 13.6097 2.25717C7.04753 4.0675 2.25 9.8335 2.25 16.6667V22.7856C1.15555 24.0737 0.5 25.7139 0.5 27.5C0.5 31.6421 4.02576 35 8.375 35L12.75 35C12.75 36.3261 13.3031 37.5979 14.2877 38.5355C15.2723 39.4732 16.6076 40 18 40C19.3924 40 20.7277 39.4732 21.7123 38.5355C22.6969 37.5979 23.25 36.3261 23.25 35L27.625 35C31.9742 35 35.5 31.6421 35.5 27.5C35.5 25.7139 34.8445 24.0737 33.75 22.7856V16.6667C33.75 9.83344 28.9524 4.0674 22.3902 2.25712ZM5.75 22.7856C5.75 23.5488 5.47494 24.289 4.97079 24.8824C4.36211 25.5988 4 26.5046 4 27.5C4 29.8012 5.95876 31.6667 8.375 31.6667H27.625C30.0412 31.6667 32 29.8012 32 27.5C32 26.5046 31.6379 25.5988 31.0292 24.8824C30.5251 24.289 30.25 23.5488 30.25 22.7856V16.6667C30.25 10.2233 24.7655 5 18 5C11.2345 5 5.75 10.2233 5.75 16.6667V22.7856ZM16.7626 36.1785C16.4344 35.866 16.25 35.442 16.25 35H19.75C19.75 35.442 19.5656 35.866 19.2374 36.1785C18.9092 36.4911 18.4641 36.6667 18 36.6667C17.5359 36.6667 17.0908 36.4911 16.7626 36.1785Z" fill="#F1E5E5"/>
</svg>
